<svg width="36" height="36" viewBox="0 0 36 36" fill="none" xmlns="http://www.w3.org/2000/svg">
<circle cx="18" cy="18" r="17.5" stroke="#F0C352"/>
<circle cx="18" cy="18" r="15.5" stroke="#F0C352"/>
<path d="M9.46191 9.89062C10.2041 9.89062 10.7835 10.0518 11.2002 10.374C11.6201 10.693 11.8301 11.1732 11.8301 11.8145C11.8301 12.1302 11.7292 12.4134 11.5273 12.6641C11.3288 12.9115 11.0651 13.0954 10.7363 13.2158C11.1628 13.307 11.4997 13.5169 11.7471 13.8457C11.9945 14.1745 12.1182 14.557 12.1182 14.9932C12.1182 15.6442 11.9066 16.1423 11.4834 16.4873C11.0602 16.8291 10.4873 17 9.76465 17H6.34668V16.3848L7.14258 16.248V10.6475L6.34668 10.5107V9.89062H7.14258H9.46191ZM8.10449 13.665V16.248H9.76465C10.2041 16.248 10.5443 16.1406 10.7852 15.9258C11.0293 15.7077 11.1514 15.4001 11.1514 15.0029C11.1514 14.5863 11.0488 14.2591 10.8438 14.0215C10.6419 13.7839 10.3311 13.665 9.91113 13.665H8.10449ZM8.10449 12.9131H9.71094C10.056 12.9033 10.3343 12.8008 10.5459 12.6055C10.7607 12.4102 10.8682 12.14 10.8682 11.7949C10.8682 11.4108 10.7477 11.1243 10.5068 10.9355C10.266 10.7435 9.91764 10.6475 9.46191 10.6475H8.10449V12.9131ZM15.4189 17.1025C14.6833 17.1025 14.0973 16.8584 13.6611 16.3701C13.2282 15.8786 13.0117 15.2422 13.0117 14.4609V14.2461C13.0117 13.4941 13.2347 12.8691 13.6807 12.3711C14.1299 11.8698 14.6605 11.6191 15.2725 11.6191C15.9821 11.6191 16.5192 11.834 16.8838 12.2637C17.2516 12.6934 17.4355 13.2663 17.4355 13.9824V14.583H14.0078L13.9932 14.6074C14.0029 15.1152 14.1315 15.5335 14.3789 15.8623C14.6263 16.1878 14.973 16.3506 15.4189 16.3506C15.7445 16.3506 16.0293 16.305 16.2734 16.2139C16.5208 16.1195 16.734 15.9909 16.9131 15.8281L17.2891 16.4531C17.1003 16.6354 16.8496 16.79 16.5371 16.917C16.2279 17.0407 15.8551 17.1025 15.4189 17.1025ZM15.2725 12.376C14.9502 12.376 14.6751 12.5127 14.4473 12.7861C14.2194 13.0563 14.0794 13.3965 14.0273 13.8066L14.0371 13.8311H16.4736V13.7041C16.4736 13.3265 16.3727 13.0107 16.1709 12.7568C15.9691 12.5029 15.6696 12.376 15.2725 12.376ZM20.7998 17.1025C20.0641 17.1025 19.4782 16.8584 19.042 16.3701C18.609 15.8786 18.3926 15.2422 18.3926 14.4609V14.2461C18.3926 13.4941 18.6156 12.8691 19.0615 12.3711C19.5107 11.8698 20.0413 11.6191 20.6533 11.6191C21.363 11.6191 21.9001 11.834 22.2646 12.2637C22.6325 12.6934 22.8164 13.2663 22.8164 13.9824V14.583H19.3887L19.374 14.6074C19.3838 15.1152 19.5124 15.5335 19.7598 15.8623C20.0072 16.1878 20.3538 16.3506 20.7998 16.3506C21.1253 16.3506 21.4102 16.305 21.6543 16.2139C21.9017 16.1195 22.1149 15.9909 22.2939 15.8281L22.6699 16.4531C22.4811 16.6354 22.2305 16.79 21.918 16.917C21.6087 17.0407 21.236 17.1025 20.7998 17.1025ZM20.6533 12.376C20.3311 12.376 20.056 12.5127 19.8281 12.7861C19.6003 13.0563 19.4603 13.3965 19.4082 13.8066L19.418 13.8311H21.8545V13.7041C21.8545 13.3265 21.7536 13.0107 21.5518 12.7568C21.3499 12.5029 21.0505 12.376 20.6533 12.376ZM23.627 16.3848L24.4229 16.248V12.4736L23.627 12.3369V11.7168H25.2822L25.3506 12.5029C25.5264 12.223 25.7461 12.0065 26.0098 11.8535C26.2767 11.6973 26.5794 11.6191 26.918 11.6191C27.4876 11.6191 27.9287 11.7868 28.2412 12.1221C28.5537 12.4541 28.71 12.9684 28.71 13.665V16.248L29.5059 16.3848V17H26.9521V16.3848L27.748 16.248V13.6846C27.748 13.2191 27.6553 12.8887 27.4697 12.6934C27.2874 12.498 27.0075 12.4004 26.6299 12.4004C26.3532 12.4004 26.1074 12.4671 25.8926 12.6006C25.681 12.734 25.5117 12.9163 25.3848 13.1475V16.248L26.1807 16.3848V17H23.627V16.3848ZM6.34668 20.5107V19.8906H8.90039V20.5107L8.10449 20.6475V23.1035H11.5518V20.6475L10.7559 20.5107V19.8906H11.5518H12.5137H13.3096V20.5107L12.5137 20.6475V26.248L13.3096 26.3848V27H10.7559V26.3848L11.5518 26.248V23.8604H8.10449V26.248L8.90039 26.3848V27H6.34668V26.3848L7.14258 26.248V20.6475L6.34668 20.5107ZM16.5322 27.1025C15.7965 27.1025 15.2106 26.8584 14.7744 26.3701C14.3415 25.8786 14.125 25.2422 14.125 24.4609V24.2461C14.125 23.4941 14.348 22.8691 14.7939 22.3711C15.2432 21.8698 15.7738 21.6191 16.3857 21.6191C17.0954 21.6191 17.6325 21.834 17.9971 22.2637C18.3649 22.6934 18.5488 23.2663 18.5488 23.9824V24.583H15.1211L15.1064 24.6074C15.1162 25.1152 15.2448 25.5335 15.4922 25.8623C15.7396 26.1878 16.0863 26.3506 16.5322 26.3506C16.8577 26.3506 17.1426 26.305 17.3867 26.2139C17.6341 26.1195 17.8473 25.9909 18.0264 25.8281L18.4023 26.4531C18.2135 26.6354 17.9629 26.79 17.6504 26.917C17.3411 27.0407 16.9684 27.1025 16.5322 27.1025ZM16.3857 22.376C16.0635 22.376 15.7884 22.5127 15.5605 22.7861C15.3327 23.0563 15.1927 23.3965 15.1406 23.8066L15.1504 23.8311H17.5869V23.7041C17.5869 23.3265 17.486 23.0107 17.2842 22.7568C17.0824 22.5029 16.7829 22.376 16.3857 22.376ZM19.501 22.3369V21.7168H21.1562L21.249 22.4834C21.3988 22.2132 21.5827 22.0016 21.8008 21.8486C22.0221 21.6956 22.2744 21.6191 22.5576 21.6191C22.6325 21.6191 22.709 21.6257 22.7871 21.6387C22.8685 21.6484 22.9303 21.6598 22.9727 21.6729L22.8457 22.5664L22.2988 22.5371C22.0449 22.5371 21.8317 22.5973 21.6592 22.7178C21.4867 22.835 21.3532 23.001 21.2588 23.2158V26.248L22.0547 26.3848V27H19.501V26.3848L20.2969 26.248V22.4736L19.501 22.3369ZM25.9561 27.1025C25.2204 27.1025 24.6344 26.8584 24.1982 26.3701C23.7653 25.8786 23.5488 25.2422 23.5488 24.4609V24.2461C23.5488 23.4941 23.7718 22.8691 24.2178 22.3711C24.667 21.8698 25.1976 21.6191 25.8096 21.6191C26.5192 21.6191 27.0563 21.834 27.4209 22.2637C27.7887 22.6934 27.9727 23.2663 27.9727 23.9824V24.583H24.5449L24.5303 24.6074C24.54 25.1152 24.6686 25.5335 24.916 25.8623C25.1634 26.1878 25.5101 26.3506 25.9561 26.3506C26.2816 26.3506 26.5664 26.305 26.8105 26.2139C27.0579 26.1195 27.2712 25.9909 27.4502 25.8281L27.8262 26.4531C27.6374 26.6354 27.3867 26.79 27.0742 26.917C26.765 27.0407 26.3923 27.1025 25.9561 27.1025ZM25.8096 22.376C25.4873 22.376 25.2122 22.5127 24.9844 22.7861C24.7565 23.0563 24.6165 23.3965 24.5645 23.8066L24.5742 23.8311H27.0107V23.7041C27.0107 23.3265 26.9098 23.0107 26.708 22.7568C26.5062 22.5029 26.2067 22.376 25.8096 22.376Z" fill="#F0C352"/>
</svg>
